# xmcd
#
# Track frame offsets:
#	150
#	16225
#	32172
#	51442
#
# Disc length: 996 seconds
#
# Revision: 0
# Processed by: cddbd v1.5.2PL0 Copyright (c) Steve Scherf et al.
# Submitted via: audiograbber 1.83.01
#
DISCID=2c03e204
DTITLE=Quicksilver - Unelmien Maa [CDM)
DYEAR=1998
DGENRE=Dance
TTITLE0=Unelmien Maa (Radio Edit)
TTITLE1=Unelmien Maa (Happy Joy Mix)
TTITLE2=Unelmien Maa (Radio Edit Extended)
TTITLE3=Unelmien Maa (Club Mix)
EXTD=TR.
EXTT0=
EXTT1=
EXTT2=
EXTT3=
PLAYORDER=
